<svg width="47" height="42" viewBox="0 0 47 42" fill="none" xmlns="http://www.w3.org/2000/svg">
<path d="M22.1852 0.132695C20.4708 0.389865 18.3105 1.84716 16.9732 3.6645C16.6818 4.04169 16.4075 4.38458 16.356 4.43602C16.2189 4.53888 15.4988 5.89332 14.9502 7.0763C14.7444 7.53921 14.453 7.95068 14.3329 8.00212C14.2129 8.03641 13.4414 7.98497 12.6185 7.8821C10.4754 7.59064 7.25218 7.62493 5.72631 7.95068C3.51464 8.41359 2.21164 9.20225 1.14867 10.711C0.720051 11.311 0.668617 11.5168 0.685762 12.7512C0.685762 14.0199 0.754341 14.2256 1.38869 15.4429C2.14306 16.8488 3.24032 18.3404 4.30329 19.3862C6.44638 21.4607 9.42956 23.7752 12.087 25.3868C12.5842 25.6955 12.8242 26.3812 13.0985 28.4386C13.2185 29.2444 13.4071 30.1016 13.5271 30.3588C13.8015 30.9417 13.7672 30.9417 10.5954 31.216C8.43517 31.4046 8.05799 31.3875 6.82357 31.1132C5.45199 30.8046 1.26868 30.5817 1.26868 30.8217C1.26868 31.1132 2.62311 32.2104 3.48035 32.6219C4.81764 33.2563 5.96633 33.5306 7.69795 33.6506C9.12096 33.7535 12.0013 33.582 13.7157 33.3077L14.4187 33.2048L15.2245 34.8336C16.7675 38.0225 18.8249 40.1141 21.2766 40.9885C23.0596 41.6057 25.9913 41.2286 27.0886 40.2513C27.2772 40.0627 27.5172 39.9256 27.603 39.9256C27.8601 39.9256 29.266 38.4511 30.1404 37.2681C30.4318 36.8909 30.7061 36.548 30.7576 36.4966C30.809 36.4452 30.9633 36.1366 31.1005 35.8108C31.2205 35.4851 31.4605 35.0222 31.6148 34.7821C31.7863 34.5421 31.9749 34.1649 32.0263 33.9249C32.1463 33.4963 32.6778 32.0904 33.0721 31.096C33.3464 30.4445 33.6207 29.073 33.8779 27.2728L34.0665 25.8498L35.2838 25.0611C35.9524 24.6325 36.9125 23.9981 37.4097 23.6552C39.2785 22.4037 39.0556 22.4208 39.93 23.2952C41.713 25.044 43.1018 27.1699 43.1018 28.1643C43.1018 28.5929 43.2904 28.9358 43.959 29.6559C44.4219 30.1702 44.7991 30.7188 44.8162 30.8732C44.8162 31.3532 45.2277 31.2332 45.6906 30.616C46.0507 30.1188 46.1021 29.913 46.0849 28.5072C46.0678 27.2213 46.0164 26.8441 45.7249 26.4498C45.5363 26.1755 45.2449 25.644 45.0734 25.2668C44.902 24.8896 44.5591 24.341 44.319 24.0496C44.079 23.7581 43.719 23.2952 43.5304 23.0209C43.3418 22.7466 42.7932 22.1122 42.296 21.5979C41.7988 21.0835 41.3873 20.6549 41.3873 20.6378C41.3873 20.6206 41.8845 20.072 42.5017 19.4376C43.8218 18.0661 44.3705 17.3288 45.3306 15.5801C46.0164 14.3628 46.0507 14.2256 46.0678 12.7512L46.1021 11.2082L45.4163 10.3167C45.0391 9.8366 44.6448 9.42513 44.5419 9.42513C44.4562 9.40798 44.2162 9.27082 44.0276 9.09938C42.6046 7.81352 38.0784 7.29918 33.8436 7.93354C30.6033 8.43073 27.5687 9.13367 25.1341 9.95661C23.7625 10.4367 23.4711 10.4881 22.9053 10.3167C17.4876 8.75648 17.2475 8.67076 17.5733 8.27643C17.6933 8.13927 17.9676 7.62493 18.1905 7.14488C19.0135 5.36183 20.3165 3.83595 21.8423 2.87585C22.0824 2.72154 22.4424 2.25864 22.6481 1.83002C22.8539 1.41855 23.2311 0.887062 23.4711 0.66418C24.2083 -0.0387525 23.9854 -0.124476 22.1852 0.132695ZM13.15 10.3681C13.5786 10.471 13.63 10.5395 13.51 10.9339C12.9099 13.197 12.447 17.0202 12.4299 20.072C12.4127 21.7865 12.3785 22.0951 12.1384 22.0951C11.6584 22.0951 6.85786 18.2889 6.36066 17.5003C6.27494 17.3803 5.86346 16.8831 5.45199 16.4202C4.62904 15.4944 3.49749 13.3684 3.49749 12.7683C3.49749 12.2369 4.26901 11.1739 4.9205 10.831C6.08634 10.2309 7.08074 10.0938 9.92676 10.1795C11.4355 10.2309 12.8928 10.3167 13.15 10.3681ZM40.6501 10.4195C41.3187 10.591 42.1417 10.9339 42.4846 11.2082C43.0846 11.6711 43.1018 11.7054 43.1018 12.8026C43.1018 13.7113 43.0332 14.0199 42.6903 14.4485C42.4674 14.74 42.2445 15.1515 42.176 15.3743C42.1074 15.5972 41.7988 16.0258 41.5073 16.3344C41.1987 16.643 40.5815 17.2945 40.1357 17.7746C39.6728 18.2718 39.1585 18.6661 38.987 18.6661C38.8156 18.6661 38.4556 18.4947 38.1812 18.2718C36.1924 16.6773 32.0263 14.2771 28.1516 12.5112C27.2429 12.0997 27.1229 11.894 27.723 11.7568C27.9287 11.7054 28.8717 11.4825 29.8146 11.2425C34.5294 10.0595 38.2327 9.78517 40.6501 10.4195ZM20.0078 12.0654C24.6541 13.5913 27.6201 14.8429 27.9801 15.4258C28.203 15.7687 28.203 15.7687 22.4081 15.7515C18.8763 15.7344 16.3903 15.7858 16.0646 15.8887C15.4302 16.0944 15.3959 16.0258 15.6531 15.1686C15.7388 14.8771 15.9103 14.0885 16.0131 13.437C16.1331 12.7683 16.3217 11.9797 16.476 11.6711C16.7675 10.9853 16.6989 10.9853 20.0078 12.0654ZM25.6827 16.3687C25.3913 16.5059 25.0484 16.8145 24.9284 17.0374C24.7569 17.3631 24.6369 17.4146 24.2254 17.2945C23.9683 17.2088 23.4368 17.1917 23.0767 17.2431C22.511 17.3117 22.3738 17.2774 22.2881 17.0031C22.1852 16.6945 21.808 16.4202 21.1565 16.2144C21.0194 16.163 22.0995 16.1116 23.5568 16.1116C26.0599 16.0944 26.1799 16.1116 25.6827 16.3687ZM24.1226 17.6203C24.4826 17.7575 24.5683 17.9118 24.6198 18.7004C24.6884 19.6262 25.0998 21.255 25.2884 21.4093C25.3399 21.4607 25.597 21.855 25.837 22.2837C26.3 23.0723 27.3458 24.1524 27.6544 24.1524C27.7401 24.1524 27.843 24.2039 27.8773 24.2724C28.0144 24.5982 29.3003 25.0097 30.1575 25.0097C30.6719 25.0097 31.1005 25.0268 31.1005 25.0611C31.1005 25.1983 30.449 26.3812 30.1061 26.8441C29.9003 27.1356 29.7289 27.4614 29.7289 27.5814C29.7289 27.7357 29.386 27.7528 28.323 27.6499C26.7114 27.4785 26.3171 27.4785 23.5568 27.6499C21.7223 27.77 19.8193 28.2157 19.3563 28.6272C19.082 28.8844 18.482 28.7986 18.1562 28.4386C17.9848 28.25 17.7447 28.0957 17.6076 28.0957C17.4876 28.0957 17.3847 27.9928 17.3847 27.8728C17.3847 27.7357 17.2133 27.4956 17.0247 27.3071C16.5446 26.8784 15.9446 25.9355 15.6874 25.1811C15.5331 24.7182 15.5331 24.6325 15.7045 24.8039C15.8245 24.9239 16.356 25.0097 16.9218 25.0097C18.6191 25.0097 20.6593 23.741 21.4994 22.1808C21.688 21.8036 21.9281 21.375 21.9966 21.2378C22.2709 20.7578 22.511 19.7805 22.631 18.7861C22.7339 17.9803 22.8196 17.7575 23.111 17.6374C23.5911 17.4317 23.6425 17.4317 24.1226 17.6203ZM34.9237 19.129C36.2267 20.0548 36.7582 20.5006 36.7582 20.6549C36.7411 20.8435 33.4493 23.2952 33.3464 23.1923C33.3121 23.158 33.3807 23.0037 33.5007 22.8666C33.9293 22.3351 34.358 19.2833 34.0322 18.9576C33.8436 18.769 33.775 18.4947 33.9293 18.4947C33.9808 18.4947 34.4265 18.7861 34.9237 19.129ZM24.8255 31.1132C25.0998 31.2503 25.5113 31.3532 25.7513 31.3532C26.42 31.3532 27.8258 32.0733 27.843 32.4333C27.843 32.9477 27.2601 33.3934 26.3342 33.582C25.5284 33.7192 25.3913 33.702 25.0998 33.4106C24.9112 33.222 24.6369 33.0677 24.4998 33.0677C24.3626 33.0677 24.2426 32.9477 24.2426 32.8105C24.2426 32.4505 23.4196 32.4676 23.0082 32.8448C22.8367 32.9991 22.6996 33.222 22.6996 33.3248C22.6996 33.8563 22.2367 33.9421 21.208 33.5992C20.4365 33.342 20.1964 33.1705 20.1621 32.8791C20.0593 32.3133 20.8651 31.679 22.3395 31.1475C23.6597 30.6846 23.934 30.6846 24.8255 31.1132Z" fill="black"/>
<path d="M27.02 1.50428C25.9056 1.88146 25.4942 2.25865 25.237 3.09874C24.6369 5.12181 26.8486 6.83628 29.1974 6.15049C30.0718 5.91047 30.8605 5.29326 31.0833 4.69319C31.632 3.13303 30.8948 1.89861 29.1117 1.38427C28.203 1.12709 28.1002 1.12709 27.02 1.50428Z" fill="black"/>
<path d="M1.33729 23.7067C0.394328 24.1353 0 24.7697 0 25.7812C0 26.7927 0.394328 27.4271 1.33729 27.8557C3.58324 28.9015 6.10352 27.8043 6.10352 25.7812C6.10352 23.7581 3.58324 22.6609 1.33729 23.7067Z" fill="black"/>
<path d="M37.6669 30.2216C36.9468 30.4788 36.3468 31.0617 36.0039 31.8332C35.7296 32.4505 35.7296 32.5019 36.0553 33.2563C36.5182 34.2849 36.8268 34.5421 38.0098 34.8507C38.8671 35.0736 39.1071 35.0736 39.93 34.8679C42.656 34.1478 42.8789 31.1989 40.2901 30.2045C39.6214 29.9473 38.387 29.9645 37.6669 30.2216Z" fill="black"/>
</svg>
