<?xml version="1.0" standalone="no"?>
<!DOCTYPE svg PUBLIC "-//W3C//DTD SVG 20010904//EN"
 "http://www.w3.org/TR/2001/REC-SVG-20010904/DTD/svg10.dtd">
<svg version="1.0" xmlns="http://www.w3.org/2000/svg"
 width="1004.000000pt" height="276.000000pt" viewBox="0 0 1004.000000 276.000000"
 preserveAspectRatio="xMidYMid meet">

<g transform="translate(0.000000,276.000000) scale(0.100000,-0.100000)"
fill="#fffffff" stroke="none">
<path d="M1590 2581 c-100 -15 -226 -100 -304 -206 -17 -22 -33 -42 -36 -45
-8 -6 -50 -85 -82 -154 -12 -27 -29 -51 -36 -54 -7 -2 -52 1 -100 7 -125 17
-313 15 -402 -4 -129 -27 -205 -73 -267 -161 -25 -35 -28 -47 -27 -119 0 -74
4 -86 41 -157 44 -82 108 -169 170 -230 125 -121 299 -256 454 -350 29 -18 43
-58 59 -178 7 -47 18 -97 25 -112 16 -34 14 -34 -171 -50 -126 -11 -148 -10
-220 6 -80 18 -324 31 -324 17 0 -17 79 -81 129 -105 78 -37 145 -53 246 -60
83 -6 251 4 351 20 l41 6 47 -95 c90 -186 210 -308 353 -359 104 -36 275 -14
339 43 11 11 25 19 30 19 15 0 97 86 148 155 17 22 33 42 36 45 3 3 12 21 20
40 7 19 21 46 30 60 10 14 21 36 24 50 7 25 38 107 61 165 16 38 32 118 47
223 l11 83 71 46 c39 25 95 62 124 82 109 73 96 72 147 21 104 -102 185 -226
185 -284 0 -25 11 -45 50 -87 27 -30 49 -62 50 -71 0 -28 24 -21 51 15 21 29
24 41 23 123 -1 75 -4 97 -21 120 -11 16 -28 47 -38 69 -10 22 -30 54 -44 71
-14 17 -35 44 -46 60 -11 16 -43 53 -72 83 -29 30 -53 55 -53 56 0 1 29 33 65
70 77 80 109 123 165 225 40 71 42 79 43 165 l2 90 -40 52 c-22 28 -45 52 -51
52 -5 1 -19 9 -30 19 -83 75 -347 105 -594 68 -189 -29 -366 -70 -508 -118
-80 -28 -97 -31 -130 -21 -316 91 -330 96 -311 119 7 8 23 38 36 66 48 104
124 193 213 249 14 9 35 36 47 61 12 24 34 55 48 68 43 41 30 46 -75 31z
m-527 -597 c25 -6 28 -10 21 -33 -35 -132 -62 -355 -63 -533 -1 -100 -3 -118
-17 -118 -28 0 -308 222 -337 268 -5 7 -29 36 -53 63 -48 54 -114 178 -114
213 0 31 45 93 83 113 68 35 126 43 292 38 88 -3 173 -8 188 -11z m1604 -3
c39 -10 87 -30 107 -46 35 -27 36 -29 36 -93 0 -53 -4 -71 -24 -96 -13 -17
-26 -41 -30 -54 -4 -13 -22 -38 -39 -56 -18 -18 -54 -56 -80 -84 -27 -29 -57
-52 -67 -52 -10 0 -31 10 -47 23 -116 93 -359 233 -585 336 -53 24 -60 36 -25
44 12 3 67 16 122 30 275 69 491 85 632 48z m-1204 -96 c271 -89 444 -162 465
-196 13 -20 13 -20 -325 -19 -206 1 -351 -2 -370 -8 -37 -12 -39 -8 -24 42 5
17 15 63 21 101 7 39 18 85 27 103 17 40 13 40 206 -23z m331 -251 c-17 -8
-37 -26 -44 -39 -10 -19 -17 -22 -41 -15 -15 5 -46 6 -67 3 -33 -4 -41 -2 -46
14 -6 18 -28 34 -66 46 -8 3 55 6 140 6 146 1 153 0 124 -15z m-91 -73 c21 -8
26 -17 29 -63 4 -54 28 -149 39 -158 3 -3 18 -26 32 -51 27 -46 88 -109 106
-109 5 0 11 -3 13 -7 8 -19 83 -43 133 -43 30 0 55 -1 55 -3 0 -8 -38 -77 -58
-104 -12 -17 -22 -36 -22 -43 0 -9 -20 -10 -82 -4 -94 10 -117 10 -278 0 -107
-7 -218 -33 -245 -57 -16 -15 -51 -10 -70 11 -10 11 -24 20 -32 20 -7 0 -13 6
-13 13 0 8 -10 22 -21 33 -28 25 -63 80 -78 124 -9 27 -9 32 1 22 7 -7 38 -12
71 -12 99 0 218 74 267 165 11 22 25 47 29 55 16 28 30 85 37 143 6 47 11 60
28 67 28 12 31 12 59 1z m630 -88 c76 -54 107 -80 107 -89 -1 -11 -193 -154
-199 -148 -2 2 2 11 9 19 25 31 50 209 31 228 -11 11 -15 27 -6 27 3 0 29 -17
58 -37z m-589 -699 c16 -8 40 -14 54 -14 39 0 121 -42 122 -63 0 -30 -34 -56
-88 -67 -47 -8 -55 -7 -72 10 -11 11 -27 20 -35 20 -8 0 -15 7 -15 15 0 21
-48 20 -72 -2 -10 -9 -18 -22 -18 -28 0 -31 -27 -36 -87 -16 -45 15 -59 25
-61 42 -6 33 41 70 127 101 77 27 93 27 145 2z"/>
<path d="M1872 2501 c-65 -22 -89 -44 -104 -93 -35 -118 94 -218 231 -178 51
14 97 50 110 85 32 91 -11 163 -115 193 -53 15 -59 15 -122 -7z"/>
<path d="M3267 1824 c-4 -4 -7 -220 -7 -481 l0 -473 64 0 c62 0 64 1 75 30 5
17 13 30 16 30 3 0 23 -13 43 -29 75 -59 160 -65 249 -19 40 22 53 36 82 94
33 64 35 76 39 186 4 109 -9 235 -26 248 -4 3 -16 22 -27 44 -11 21 -30 43
-42 49 -13 6 -23 14 -23 18 0 4 -24 16 -54 25 -68 22 -125 8 -180 -42 -20 -19
-41 -34 -46 -34 -5 0 -11 78 -12 178 l-3 177 -70 3 c-39 1 -74 0 -78 -4z m343
-442 c35 -36 50 -87 50 -175 0 -142 -37 -207 -117 -207 -99 0 -142 108 -117
294 15 103 119 153 184 88z"/>
<path d="M6274 1804 c-4 -15 -4 -96 -1 -181 3 -84 3 -153 -1 -153 -4 0 -24 15
-44 34 -83 76 -195 71 -271 -14 -65 -73 -82 -136 -81 -305 0 -137 1 -141 33
-207 23 -46 45 -75 72 -93 74 -52 184 -43 255 21 37 32 54 36 54 10 0 -28 36
-46 93 -46 l57 0 -2 478 -3 477 -77 3 c-77 3 -77 3 -84 -24z m-57 -416 c51
-31 63 -69 62 -190 -1 -111 -5 -130 -31 -168 -15 -20 -28 -25 -80 -28 -55 -3
-66 -1 -91 20 -36 31 -47 74 -47 178 1 85 19 161 41 169 6 2 19 12 27 22 22
26 76 24 119 -3z"/>
<path d="M8664 1816 c-3 -8 -4 -89 -2 -180 1 -92 1 -166 -2 -166 -3 0 -21 15
-40 33 -74 70 -184 72 -257 4 -140 -129 -144 -482 -6 -608 72 -67 192 -65 265
5 35 33 48 33 73 -4 18 -27 25 -30 78 -30 l57 0 -2 478 -3 477 -78 3 c-61 2
-78 0 -83 -12z m-45 -437 c17 -17 34 -43 37 -57 3 -15 10 -46 16 -70 8 -32 7
-62 -2 -120 -18 -102 -45 -132 -120 -132 -43 0 -56 5 -80 28 -35 36 -50 87
-50 177 1 163 112 261 199 174z"/>
<path d="M4161 1548 c-151 -34 -238 -205 -212 -417 17 -131 62 -205 154 -254
35 -18 58 -22 137 -22 86 0 100 3 141 27 61 37 83 62 116 133 25 55 28 70 28
180 0 105 -3 128 -24 180 -27 64 -72 121 -105 131 -12 4 -25 12 -31 19 -12 15
-92 35 -132 34 -15 -1 -48 -6 -72 -11z m157 -173 c38 -42 47 -84 45 -196 -2
-133 -32 -179 -116 -179 -108 0 -137 42 -137 197 0 110 9 146 43 179 30 27 43
32 93 33 36 1 46 -4 72 -34z"/>
<path d="M4687 1553 c-4 -3 -7 -159 -7 -345 l0 -338 80 0 80 0 0 183 c0 100 5
198 10 218 18 65 88 109 172 109 43 0 46 6 50 110 3 62 2 65 -21 68 -48 7
-108 -19 -161 -69 -28 -28 -55 -47 -59 -44 -5 2 -12 22 -16 42 -12 64 -20 73
-74 73 -26 0 -51 -3 -54 -7z"/>
<path d="M5370 1548 c-25 -6 -49 -17 -53 -25 -4 -7 -14 -13 -20 -13 -31 0 -85
-76 -112 -157 -24 -73 -27 -93 -23 -170 9 -146 58 -246 149 -301 52 -32 167
-40 242 -18 64 19 133 73 143 112 3 13 10 24 14 24 31 0 46 255 21 345 -44
155 -200 242 -361 203z m158 -165 c17 -16 35 -46 41 -68 14 -51 14 -174 0
-228 -17 -69 -31 -81 -103 -85 -58 -4 -66 -2 -95 24 -37 34 -51 80 -51 174 0
97 14 140 54 178 48 43 109 45 154 5z"/>
<path d="M6770 1548 c-30 -6 -62 -16 -71 -24 -8 -8 -23 -14 -31 -14 -9 0 -18
-6 -21 -14 -7 -17 13 -86 25 -86 4 0 8 -6 8 -14 0 -23 17 -28 34 -11 19 20
129 38 173 30 39 -7 66 -50 61 -98 l-3 -32 -115 -8 c-82 -5 -118 -12 -126 -22
-6 -8 -17 -15 -25 -15 -19 -1 -62 -38 -85 -74 -22 -35 -25 -150 -6 -207 23
-67 92 -109 181 -109 67 0 106 14 148 54 21 20 42 36 46 36 4 0 15 -16 23 -35
14 -34 15 -35 74 -35 l60 0 0 246 c0 141 -5 263 -11 288 -10 42 -60 106 -81
106 -6 0 -19 6 -27 14 -20 17 -100 36 -143 35 -18 -1 -58 -6 -88 -11z m178
-423 c4 -68 -22 -114 -73 -132 -43 -15 -98 -8 -120 14 -17 17 -20 70 -5 108
13 35 94 65 165 62 29 -2 30 -4 33 -52z"/>
<path d="M7805 1549 c-156 -45 -223 -168 -213 -387 4 -88 9 -107 37 -162 33
-62 75 -109 99 -110 7 0 25 -8 39 -18 41 -26 243 -25 301 3 l42 20 0 68 c0 66
-5 78 -27 56 -17 -17 -164 -38 -211 -30 -68 13 -112 66 -112 136 l0 35 190 0
190 0 0 88 c0 48 -7 108 -15 135 -14 46 -70 126 -89 127 -5 0 -17 6 -25 14
-35 30 -145 43 -206 25z m118 -131 c41 -21 70 -61 71 -98 l1 -35 -115 0 c-131
0 -137 4 -104 76 26 59 94 86 147 57z"/>
<path d="M9017 1553 c-4 -3 -7 -124 -7 -268 0 -290 6 -333 57 -384 41 -41 131
-60 208 -44 55 12 63 17 112 62 25 24 26 24 39 6 8 -10 14 -27 14 -37 0 -16 9
-18 65 -18 l65 0 -2 343 -3 342 -75 0 -75 0 -6 -225 c-5 -205 -8 -229 -27
-267 -27 -52 -47 -63 -109 -63 -90 0 -93 12 -93 309 0 209 -2 240 -16 245 -21
8 -139 8 -147 -1z"/>
<path d="M374 1206 c-55 -25 -78 -62 -78 -121 0 -59 23 -96 78 -121 131 -61
278 3 278 121 0 118 -147 182 -278 121z"/>
<path d="M7323 1040 c-43 -18 -57 -93 -28 -150 30 -57 133 -49 154 12 19 53
13 87 -18 119 -30 30 -65 36 -108 19z"/>
<path d="M2493 826 c-42 -15 -77 -49 -97 -94 -16 -36 -16 -39 3 -83 27 -60 45
-75 114 -93 50 -13 64 -13 112 -1 159 42 172 214 21 272 -39 15 -111 14 -153
-1z"/>
</g>
</svg>
