<svg width="159" height="42" viewBox="0 0 159 42" fill="none" xmlns="http://www.w3.org/2000/svg">
<path d="M22.1852 0.132725C20.4708 0.389896 18.3105 1.84719 16.9732 3.66454C16.6818 4.04172 16.4075 4.38461 16.356 4.43605C16.2189 4.53891 15.4988 5.89335 14.9502 7.07633C14.7444 7.53924 14.453 7.95071 14.3329 8.00215C14.2129 8.03643 13.4414 7.985 12.6185 7.88213C10.4754 7.59068 7.25218 7.62496 5.72631 7.95071C3.51464 8.41362 2.21164 9.20227 1.14867 10.711C0.720051 11.3111 0.668617 11.5168 0.685762 12.7512C0.685762 14.0199 0.754341 14.2257 1.38869 15.4429C2.14306 16.8488 3.24032 18.3404 4.30329 19.3862C6.44638 21.4607 9.42956 23.7753 12.087 25.3869C12.5842 25.6955 12.8242 26.3813 13.0985 28.4386C13.2185 29.2444 13.4071 30.1017 13.5271 30.3588C13.8015 30.9418 13.7672 30.9418 10.5954 31.2161C8.43517 31.4047 8.05799 31.3875 6.82357 31.1132C5.45199 30.8046 1.26868 30.5817 1.26868 30.8217C1.26868 31.1132 2.62311 32.2105 3.48035 32.6219C4.81764 33.2563 5.96633 33.5306 7.69795 33.6506C9.12096 33.7535 12.0013 33.582 13.7157 33.3077L14.4187 33.2049L15.2245 34.8336C16.7675 38.0225 18.8249 40.1142 21.2766 40.9886C23.0596 41.6058 25.9913 41.2286 27.0886 40.2513C27.2772 40.0627 27.5172 39.9256 27.603 39.9256C27.8601 39.9256 29.266 38.4511 30.1404 37.2682C30.4318 36.891 30.7061 36.5481 30.7576 36.4966C30.809 36.4452 30.9633 36.1366 31.1005 35.8109C31.2205 35.4851 31.4605 35.0222 31.6148 34.7822C31.7863 34.5421 31.9749 34.165 32.0263 33.9249C32.1463 33.4963 32.6778 32.0905 33.0721 31.0961C33.3464 30.4446 33.6207 29.073 33.8779 27.2728L34.0665 25.8498L35.2838 25.0611C35.9524 24.6325 36.9125 23.9982 37.4097 23.6553C39.2785 22.4037 39.0556 22.4208 39.93 23.2952C41.713 25.044 43.1018 27.1699 43.1018 28.1643C43.1018 28.5929 43.2904 28.9358 43.959 29.6559C44.4219 30.1702 44.7991 30.7189 44.8162 30.8732C44.8162 31.3532 45.2277 31.2332 45.6906 30.616C46.0507 30.1188 46.1021 29.9131 46.0849 28.5072C46.0678 27.2214 46.0164 26.8442 45.7249 26.4498C45.5363 26.1755 45.2449 25.644 45.0734 25.2669C44.902 24.8897 44.5591 24.341 44.319 24.0496C44.079 23.7581 43.719 23.2952 43.5304 23.0209C43.3418 22.7466 42.7932 22.1122 42.296 21.5979C41.7988 21.0836 41.3873 20.6549 41.3873 20.6378C41.3873 20.6206 41.8845 20.072 42.5017 19.4377C43.8218 18.0661 44.3705 17.3289 45.3306 15.5801C46.0164 14.3628 46.0507 14.2257 46.0678 12.7512L46.1021 11.2082L45.4163 10.3167C45.0391 9.83663 44.6448 9.42516 44.5419 9.42516C44.4562 9.40801 44.2162 9.27085 44.0276 9.09941C42.6046 7.81355 38.0784 7.29921 33.8436 7.93357C30.6033 8.43076 27.5687 9.1337 25.1341 9.95664C23.7625 10.4367 23.4711 10.4881 22.9053 10.3167C17.4876 8.75651 17.2475 8.67079 17.5733 8.27646C17.6933 8.13931 17.9676 7.62496 18.1905 7.14491C19.0135 5.36186 20.3165 3.83598 21.8423 2.87588C22.0824 2.72158 22.4424 2.25867 22.6481 1.83005C22.8539 1.41858 23.2311 0.887093 23.4711 0.664211C24.2083 -0.038723 23.9854 -0.124447 22.1852 0.132725ZM13.15 10.3681C13.5786 10.471 13.63 10.5396 13.51 10.9339C12.9099 13.197 12.447 17.0203 12.4299 20.072C12.4127 21.7865 12.3785 22.0951 12.1384 22.0951C11.6584 22.0951 6.85786 18.289 6.36066 17.5003C6.27494 17.3803 5.86346 16.8831 5.45199 16.4202C4.62904 15.4944 3.49749 13.3684 3.49749 12.7684C3.49749 12.2369 4.26901 11.1739 4.9205 10.831C6.08634 10.231 7.08074 10.0938 9.92676 10.1795C11.4355 10.231 12.8928 10.3167 13.15 10.3681ZM40.6501 10.4195C41.3187 10.591 42.1417 10.9339 42.4846 11.2082C43.0846 11.6711 43.1018 11.7054 43.1018 12.8027C43.1018 13.7113 43.0332 14.0199 42.6903 14.4486C42.4674 14.74 42.2445 15.1515 42.176 15.3744C42.1074 15.5972 41.7988 16.0259 41.5073 16.3345C41.1987 16.6431 40.5815 17.2946 40.1357 17.7746C39.6728 18.2718 39.1585 18.6662 38.987 18.6662C38.8156 18.6662 38.4556 18.4947 38.1812 18.2718C36.1924 16.6774 32.0263 14.2771 28.1516 12.5112C27.2429 12.0997 27.1229 11.894 27.723 11.7568C27.9287 11.7054 28.8717 11.4825 29.8146 11.2425C34.5294 10.0595 38.2327 9.7852 40.6501 10.4195ZM20.0078 12.0654C24.6541 13.5913 27.6201 14.8429 27.9801 15.4258C28.203 15.7687 28.203 15.7687 22.4081 15.7516C18.8763 15.7344 16.3903 15.7858 16.0646 15.8887C15.4302 16.0944 15.3959 16.0259 15.6531 15.1686C15.7388 14.8772 15.9103 14.0885 16.0131 13.437C16.1331 12.7684 16.3217 11.9797 16.476 11.6711C16.7675 10.9853 16.6989 10.9853 20.0078 12.0654ZM25.6827 16.3688C25.3913 16.5059 25.0484 16.8145 24.9284 17.0374C24.7569 17.3632 24.6369 17.4146 24.2254 17.2946C23.9683 17.2089 23.4368 17.1917 23.0767 17.2431C22.511 17.3117 22.3738 17.2774 22.2881 17.0031C22.1852 16.6945 21.808 16.4202 21.1565 16.2145C21.0194 16.163 22.0995 16.1116 23.5568 16.1116C26.0599 16.0944 26.1799 16.1116 25.6827 16.3688ZM24.1226 17.6203C24.4826 17.7575 24.5683 17.9118 24.6198 18.7004C24.6884 19.6263 25.0998 21.255 25.2884 21.4093C25.3398 21.4607 25.597 21.8551 25.837 22.2837C26.3 23.0723 27.3458 24.1525 27.6544 24.1525C27.7401 24.1525 27.843 24.2039 27.8773 24.2725C28.0144 24.5982 29.3003 25.0097 30.1575 25.0097C30.6719 25.0097 31.1005 25.0268 31.1005 25.0611C31.1005 25.1983 30.449 26.3813 30.1061 26.8442C29.9003 27.1356 29.7289 27.4614 29.7289 27.5814C29.7289 27.7357 29.386 27.7528 28.323 27.65C26.7114 27.4785 26.3171 27.4785 23.5568 27.65C21.7223 27.77 19.8193 28.2158 19.3563 28.6272C19.082 28.8844 18.482 28.7987 18.1562 28.4386C17.9848 28.25 17.7447 28.0957 17.6076 28.0957C17.4876 28.0957 17.3847 27.9929 17.3847 27.8729C17.3847 27.7357 17.2133 27.4957 17.0247 27.3071C16.5446 26.8785 15.9446 25.9355 15.6874 25.1811C15.5331 24.7182 15.5331 24.6325 15.7045 24.804C15.8245 24.924 16.356 25.0097 16.9218 25.0097C18.6191 25.0097 20.6593 23.741 21.4994 22.1808C21.688 21.8036 21.9281 21.375 21.9966 21.2379C22.2709 20.7578 22.511 19.7806 22.631 18.7862C22.7339 17.9804 22.8196 17.7575 23.111 17.6375C23.5911 17.4317 23.6425 17.4317 24.1226 17.6203ZM34.9237 19.1291C36.2267 20.0549 36.7582 20.5006 36.7582 20.6549C36.7411 20.8435 33.4493 23.2952 33.3464 23.1924C33.3121 23.1581 33.3807 23.0038 33.5007 22.8666C33.9293 22.3351 34.358 19.2834 34.0322 18.9576C33.8436 18.769 33.775 18.4947 33.9293 18.4947C33.9808 18.4947 34.4265 18.7862 34.9237 19.1291ZM24.8255 31.1132C25.0998 31.2504 25.5113 31.3532 25.7513 31.3532C26.42 31.3532 27.8258 32.0733 27.843 32.4333C27.843 32.9477 27.2601 33.3935 26.3342 33.582C25.5284 33.7192 25.3913 33.7021 25.0998 33.4106C24.9112 33.222 24.6369 33.0677 24.4998 33.0677C24.3626 33.0677 24.2426 32.9477 24.2426 32.8105C24.2426 32.4505 23.4196 32.4676 23.0082 32.8448C22.8367 32.9991 22.6996 33.222 22.6996 33.3249C22.6996 33.8564 22.2367 33.9421 21.208 33.5992C20.4365 33.342 20.1964 33.1706 20.1621 32.8791C20.0593 32.3133 20.8651 31.679 22.3395 31.1475C23.6597 30.6846 23.934 30.6846 24.8255 31.1132Z" fill="white"/>
<path d="M27.02 1.50434C25.9056 1.88152 25.4942 2.25871 25.237 3.0988C24.6369 5.12187 26.8486 6.83634 29.1974 6.15055C30.0718 5.91053 30.8605 5.29332 31.0833 4.69325C31.632 3.13309 30.8948 1.89867 29.1117 1.38433C28.203 1.12716 28.1002 1.12716 27.02 1.50434Z" fill="white"/>
<path d="M50.9369 13.1112C50.8684 13.1798 50.8169 16.8831 50.8169 21.3578V29.4673H51.9142C52.9772 29.4673 53.0114 29.4501 53.2 28.953C53.2858 28.6615 53.4229 28.4386 53.4744 28.4386C53.5258 28.4386 53.8687 28.6615 54.2116 28.9358C55.4974 29.9473 56.9547 30.0502 58.4806 29.2616C59.1664 28.8844 59.3893 28.6443 59.8865 27.65C60.4522 26.5527 60.4865 26.347 60.5551 24.461C60.6237 22.5923 60.4008 20.432 60.1094 20.2092C60.0408 20.1577 59.835 19.832 59.6464 19.4548C59.4579 19.0947 59.1321 18.7176 58.9264 18.6147C58.7035 18.5118 58.532 18.3747 58.532 18.3061C58.532 18.2375 58.1206 18.0318 57.6062 17.8775C56.4404 17.5003 55.4631 17.7403 54.5202 18.5976C54.1773 18.9233 53.8172 19.1805 53.7315 19.1805C53.6458 19.1805 53.5429 17.8432 53.5258 16.1287L53.4744 13.0941L52.2742 13.0427C51.6056 13.0255 51.0055 13.0427 50.9369 13.1112ZM56.8176 20.6892C57.4176 21.3064 57.6748 22.1808 57.6748 23.6895C57.6748 26.1241 57.0405 27.2385 55.6689 27.2385C53.9716 27.2385 53.2343 25.3869 53.6629 22.1979C53.9201 20.432 55.7032 19.5748 56.8176 20.6892Z" fill="white"/>
<path d="M102.491 13.4542C102.422 13.7113 102.422 15.1001 102.474 16.5574C102.525 17.9975 102.525 19.1805 102.457 19.1805C102.388 19.1805 102.045 18.9233 101.702 18.5976C100.279 17.2946 98.3592 17.3803 97.0562 18.8376C95.9418 20.0892 95.6503 21.1693 95.6675 24.0667C95.6675 26.4156 95.6846 26.4841 96.2332 27.6157C96.6276 28.4043 97.0047 28.9015 97.4676 29.2101C98.7364 30.1017 100.622 29.9474 101.84 28.8501C102.474 28.3015 102.765 28.2329 102.765 28.6787C102.765 29.1587 103.383 29.4673 104.36 29.4673H105.337L105.303 21.2721L105.251 13.0941L103.931 13.0427C102.611 12.9913 102.611 12.9913 102.491 13.4542ZM101.514 20.5864C102.388 21.1178 102.594 21.7693 102.577 23.8438C102.56 25.7469 102.491 26.0727 102.045 26.7242C101.788 27.0671 101.565 27.1528 100.674 27.2042C99.7307 27.2556 99.5422 27.2214 99.1135 26.8613C98.4963 26.3298 98.3077 25.5926 98.3077 23.8096C98.3249 22.3523 98.6335 21.0493 99.0107 20.9121C99.1135 20.8778 99.3364 20.7064 99.4736 20.5349C99.8508 20.0892 100.777 20.1234 101.514 20.5864Z" fill="white"/>
<path d="M143.467 13.2484C143.415 13.3856 143.398 14.7743 143.433 16.3345C143.45 17.9118 143.45 19.1805 143.398 19.1805C143.347 19.1805 143.038 18.9233 142.713 18.6147C141.444 17.4146 139.558 17.3803 138.306 18.5461C135.906 20.7578 135.837 26.8099 138.203 28.9701C139.438 30.1188 141.495 30.0845 142.747 28.8844C143.347 28.3186 143.57 28.3186 143.998 28.953C144.307 29.4159 144.427 29.4673 145.336 29.4673H146.313L146.279 21.2721L146.227 13.0941L144.89 13.0427C143.844 13.0084 143.553 13.0427 143.467 13.2484ZM142.695 20.7406C142.987 21.0321 143.278 21.4779 143.33 21.7179C143.381 21.9751 143.501 22.5065 143.604 22.918C143.741 23.4667 143.724 23.981 143.57 24.9754C143.261 26.7241 142.798 27.2385 141.512 27.2385C140.775 27.2385 140.552 27.1528 140.141 26.7584C139.541 26.1412 139.284 25.2668 139.284 23.7238C139.301 20.9292 141.204 19.2491 142.695 20.7406Z" fill="white"/>
<path d="M66.2643 17.8432C63.6754 18.4261 62.1839 21.3579 62.6296 24.9925C62.9211 27.2385 63.6926 28.5072 65.2699 29.3473C65.87 29.6559 66.2643 29.7245 67.6187 29.7245C69.0932 29.7245 69.3332 29.6731 70.0361 29.2616C71.082 28.6272 71.4591 28.1986 72.0249 26.9813C72.4535 26.0384 72.505 25.7812 72.505 23.8953C72.505 22.0951 72.4535 21.7008 72.0935 20.8092C71.6306 19.712 70.8591 18.7347 70.2933 18.5633C70.0876 18.4947 69.8647 18.3575 69.7618 18.2375C69.5561 17.9804 68.1845 17.6375 67.4987 17.6546C67.2415 17.6718 66.6758 17.7575 66.2643 17.8432ZM68.956 20.8092C69.6075 21.5293 69.7618 22.2494 69.7275 24.1696C69.6932 26.4498 69.1789 27.2385 67.7387 27.2385C65.8871 27.2385 65.3899 26.5184 65.3899 23.861C65.3899 21.9751 65.5442 21.3579 66.1271 20.7921C66.6415 20.3292 66.8644 20.2435 67.7216 20.2263C68.3388 20.2092 68.5103 20.2949 68.956 20.8092Z" fill="white"/>
<path d="M75.2824 17.7575C75.2138 17.8089 75.1624 20.4835 75.1624 23.6724V29.4673H76.534H77.9055V26.3298C77.9055 24.6154 77.9913 22.9352 78.077 22.5923C78.3856 21.4779 79.5857 20.7235 81.0259 20.7235C81.7631 20.7235 81.8145 20.6206 81.8831 18.8376C81.9345 17.7746 81.9174 17.7232 81.5231 17.6718C80.7001 17.5517 79.6714 17.9975 78.7628 18.8547C78.2827 19.3348 77.8198 19.6605 77.7512 19.6091C77.6655 19.5748 77.5455 19.2319 77.4769 18.889C77.2712 17.7918 77.134 17.6375 76.2082 17.6375C75.7624 17.6375 75.3338 17.6889 75.2824 17.7575Z" fill="white"/>
<path d="M86.9923 17.8432C86.5637 17.9461 86.1522 18.1347 86.0836 18.2718C86.015 18.3919 85.8436 18.4947 85.7407 18.4947C85.2092 18.4947 84.2834 19.7977 83.8205 21.1864C83.409 22.438 83.3576 22.7809 83.4262 24.101C83.5805 26.6042 84.4206 28.3186 85.9807 29.2616C86.8723 29.8102 88.8439 29.9474 90.1298 29.5702C91.227 29.2444 92.41 28.3186 92.5814 27.65C92.6329 27.4271 92.7529 27.2385 92.8215 27.2385C93.353 27.2385 93.6101 22.8666 93.1815 21.3236C92.4271 18.6662 89.7526 17.1746 86.9923 17.8432ZM89.7011 20.6721C89.9926 20.9464 90.3012 21.4608 90.4041 21.8379C90.6441 22.7123 90.6441 24.8211 90.4041 25.7469C90.1126 26.9299 89.8726 27.1356 88.6382 27.2042C87.6438 27.2728 87.5066 27.2385 87.0094 26.7928C86.3751 26.2098 86.135 25.4212 86.135 23.8096C86.135 22.1465 86.3751 21.4093 87.0609 20.7578C87.8838 20.0206 88.9296 19.9863 89.7011 20.6721Z" fill="white"/>
<path d="M110.995 17.8432C110.481 17.9461 109.932 18.1175 109.778 18.2547C109.64 18.3918 109.383 18.4947 109.246 18.4947C109.092 18.4947 108.937 18.5976 108.886 18.7347C108.766 19.0262 109.109 20.2092 109.315 20.2092C109.383 20.2092 109.452 20.312 109.452 20.4492C109.452 20.8435 109.743 20.9293 110.035 20.6378C110.36 20.2949 112.246 19.9863 113.001 20.1235C113.669 20.2435 114.132 20.9807 114.047 21.8036L113.995 22.3523L112.024 22.4894C110.618 22.5751 110 22.6952 109.863 22.8666C109.76 23.0038 109.572 23.1238 109.435 23.1238C109.109 23.1409 108.372 23.7753 107.977 24.3925C107.6 24.9925 107.549 26.9642 107.875 27.9414C108.269 29.0901 109.452 29.8102 110.978 29.8102C112.126 29.8102 112.795 29.5702 113.515 28.8844C113.875 28.5415 114.235 28.2672 114.304 28.2672C114.372 28.2672 114.561 28.5415 114.698 28.8673C114.938 29.4502 114.955 29.4673 115.967 29.4673H116.995V25.2497C116.995 22.8323 116.91 20.7407 116.807 20.312C116.635 19.592 115.778 18.4947 115.418 18.4947C115.315 18.4947 115.092 18.3918 114.955 18.2547C114.612 17.9632 113.241 17.6375 112.504 17.6546C112.195 17.6718 111.509 17.7575 110.995 17.8432ZM114.047 25.0954C114.115 26.2613 113.669 27.0499 112.795 27.3585C112.058 27.6157 111.115 27.4957 110.738 27.1185C110.446 26.827 110.395 25.9184 110.652 25.2669C110.875 24.6668 112.264 24.1525 113.481 24.2039C113.978 24.2382 113.995 24.2725 114.047 25.0954Z" fill="white"/>
<path d="M128.74 17.826C126.065 18.5976 124.916 20.7063 125.088 24.461C125.156 25.9698 125.242 26.2955 125.722 27.2385C126.288 28.3015 127.008 29.1073 127.419 29.1244C127.54 29.1244 127.848 29.2616 128.088 29.433C128.791 29.8788 132.254 29.8616 133.249 29.3816L133.969 29.0387V27.8728C133.969 26.7413 133.883 26.5355 133.506 26.9127C133.214 27.2042 130.694 27.5642 129.888 27.4271C128.722 27.2042 127.968 26.2955 127.968 25.0954V24.4953H131.226H134.483V22.9866C134.483 22.1636 134.363 21.135 134.226 20.6721C133.986 19.8834 133.026 18.5118 132.7 18.4947C132.614 18.4947 132.409 18.3918 132.271 18.2547C131.671 17.7403 129.785 17.5174 128.74 17.826ZM130.763 20.072C131.466 20.432 131.963 21.1178 131.98 21.7522L131.997 22.3522H130.025C127.78 22.3522 127.677 22.2837 128.242 21.0492C128.688 20.0377 129.854 19.5748 130.763 20.072Z" fill="white"/>
<path d="M149.519 17.7575C149.45 17.8089 149.399 19.8834 149.399 22.3523C149.399 27.3242 149.502 28.0615 150.376 28.9358C151.079 29.6388 152.622 29.9645 153.942 29.6902C154.885 29.4845 155.022 29.3988 155.863 28.6272C156.291 28.2158 156.308 28.2158 156.531 28.5244C156.668 28.6958 156.771 28.9873 156.771 29.1587C156.771 29.433 156.926 29.4673 157.886 29.4673H159L158.966 23.5867L158.914 17.7232H157.628H156.343L156.24 21.5808C156.154 25.0954 156.103 25.5069 155.777 26.1584C155.314 27.0499 154.971 27.2385 153.908 27.2385C152.365 27.2385 152.314 27.0328 152.314 21.9408C152.314 18.3576 152.279 17.8261 152.039 17.7404C151.679 17.6032 149.656 17.6032 149.519 17.7575Z" fill="white"/>
<path d="M1.33729 23.7067C0.394328 24.1353 0 24.7697 0 25.7812C0 26.7927 0.394328 27.4271 1.33729 27.8557C3.58324 28.9015 6.10352 27.8043 6.10352 25.7812C6.10352 23.7581 3.58324 22.6609 1.33729 23.7067Z" fill="white"/>
<path d="M120.476 26.5527C119.739 26.8613 119.499 28.1472 119.996 29.1244C120.51 30.1017 122.276 29.9645 122.636 28.9187C122.962 28.01 122.859 27.4271 122.327 26.8785C121.813 26.3641 121.213 26.2613 120.476 26.5527Z" fill="white"/>
<path d="M37.6669 30.2217C36.9468 30.4788 36.3468 31.0618 36.0039 31.8333C35.7296 32.4505 35.7296 32.5019 36.0553 33.2563C36.5182 34.285 36.8268 34.5421 38.0098 34.8507C38.8671 35.0736 39.1071 35.0736 39.93 34.8679C42.656 34.1478 42.8789 31.1989 40.2901 30.2045C39.6214 29.9474 38.387 29.9645 37.6669 30.2217Z" fill="white"/>
</svg>
